<?xml version="1.0" encoding="iso-8859-1"?>
<!-- Uploaded to: SVG Repo, www.svgrepo.com, Generator: SVG Repo Mixer Tools -->
<svg fill="#000000" height="800px" width="800px" version="1.1" id="Layer_1" xmlns="http://www.w3.org/2000/svg" xmlns:xlink="http://www.w3.org/1999/xlink" 
	 viewBox="0 0 512 512" xml:space="preserve">
<g>
	<g>
		<path d="M374.518,37.926c-49.407,0-94.065,26.029-118.518,67.708c-24.449-41.679-69.107-67.708-118.518-67.708
			C46.254,37.926,0,84.182,0,175.407c0,103.042,240,288.844,250.217,296.699c1.704,1.31,3.741,1.967,5.783,1.967
			c1.963,0,3.926-0.606,5.592-1.823C271.819,464.778,512,287.964,512,175.407C512,54.259,442.5,37.926,374.518,37.926z
			 M256.134,452.658c-16.556-13.083-66.926-53.699-116.787-102.125C60.593,274.046,18.963,213.491,18.963,175.407
			c0-80.855,37.662-118.519,118.519-118.519c48.361,0,91.44,28.917,109.741,73.673c1.458,3.564,4.926,5.893,8.778,5.893
			s7.319-2.329,8.778-5.893c18.305-44.756,61.384-73.673,109.741-73.673c71.139,0,118.519,20.153,118.519,118.519
			C493.037,269.427,292.852,424.932,256.134,452.658z"/>
	</g>
</g>
</svg>